<svg width="18" height="18" viewBox="0 0 18 18" fill="none" xmlns="http://www.w3.org/2000/svg">
<path d="M16.933 7.1367C16.5274 5.68943 15.757 4.37098 14.696 3.30805C13.6349 2.24512 12.3187 1.47344 10.874 1.06716C9.60671 0.712719 8.52057 1.81388 8.52057 3.13127V8.30041C8.52057 8.9591 9.054 9.49347 9.71155 9.49347H14.8717C16.1875 9.49347 17.2868 8.40543 16.933 7.1367Z" fill="#05411A"/>
<path opacity="0.5" d="M6.87247 3.54935L6.87269 3.54928C7.14538 3.46315 7.37251 3.27219 7.50443 3.01867C7.63633 2.7652 7.66238 2.46974 7.57693 2.19711C7.49107 1.92315 7.30012 1.69659 7.04768 1.56451C6.79417 1.43185 6.49834 1.40547 6.22534 1.49124L6.22505 1.49133C2.90742 2.53581 0.5 5.6391 0.5 9.30884C0.5 13.8313 4.1611 17.5 8.67852 17.5C12.3399 17.5 15.4367 15.091 16.4796 11.7728C16.5253 11.6391 16.5443 11.4976 16.5356 11.3565C16.5266 11.2121 16.4886 11.071 16.424 10.9415C16.3594 10.812 16.2694 10.6968 16.1594 10.6028C16.0493 10.5088 15.9215 10.4379 15.7834 10.3943C15.6453 10.3508 15.4998 10.3356 15.3557 10.3495C15.2116 10.3635 15.0718 10.4063 14.9446 10.4755C14.8175 10.5447 14.7056 10.6388 14.6156 10.7521C14.5276 10.8628 14.4623 10.9897 14.4233 11.1255C14.0375 12.3477 13.2733 13.4152 12.2415 14.1732C11.2078 14.9325 9.95944 15.3418 8.67781 15.3417H8.67775C7.88706 15.3417 7.1041 15.1857 6.37356 14.8825C5.64302 14.5794 4.97918 14.135 4.41999 13.5748C3.8608 13.0145 3.41719 12.3494 3.11456 11.6173C2.81192 10.8852 2.65619 10.1005 2.65629 9.30812V9.30802C2.65618 8.02345 3.06507 6.77241 3.82339 5.73677C4.58169 4.70115 5.64985 3.93494 6.87247 3.54935Z" fill="#0A7B32" stroke="#0A7B32"/>
</svg>
