<svg width="1198" height="407" viewBox="0 0 1198 407" fill="none" xmlns="http://www.w3.org/2000/svg">
<rect y="296.953" width="77.1494" height="109.174" rx="30" fill="#57767F" fill-opacity="0.2"/>
<rect x="101.896" y="296.953" width="77.1494" height="109.174" rx="30" fill="#57767F" fill-opacity="0.2"/>
<rect x="203.791" y="263.473" width="77.1494" height="109.174" rx="30" fill="#57767F" fill-opacity="0.2"/>
<rect x="305.686" y="144.109" width="77.1494" height="228.537" rx="30" fill="#57767F" fill-opacity="0.2"/>
<rect x="407.582" width="77.1494" height="276.573" rx="30" fill="#57767F" fill-opacity="0.2"/>
<rect x="509.477" y="93.1616" width="77.1494" height="257.65" rx="30" fill="#57767F" fill-opacity="0.2"/>
<rect x="713.269" y="202.335" width="77.1494" height="112.085" rx="30" fill="#57767F" fill-opacity="0.2"/>
<rect x="815.164" y="231.448" width="77.1494" height="174.678" rx="30" fill="#57767F" fill-opacity="0.2"/>
<rect x="917.06" y="211.069" width="77.1494" height="139.742" rx="30" fill="#57767F" fill-opacity="0.2"/>
<rect x="1018.96" y="244.549" width="77.1494" height="139.742" rx="30" fill="#57767F" fill-opacity="0.2"/>
<rect x="1120.85" y="164.488" width="77.1494" height="168.855" rx="30" fill="#57767F" fill-opacity="0.2"/>
<rect x="611.373" y="164.488" width="77.1494" height="112.085" rx="30" fill="#57767F" fill-opacity="0.2"/>
</svg>
