<svg width="127" height="127" viewBox="0 0 127 127" fill="none" xmlns="http://www.w3.org/2000/svg">
<circle cx="63.5" cy="63.5" r="63.5" fill="black"/>
<ellipse cx="63.5" cy="63" rx="50.5" ry="41" fill="white"/>
<path d="M33.8565 73.25H33.2C31.0056 73.2599 28.874 73.9949 27.1279 75.3438C25.3817 76.6926 24.1159 78.5819 23.522 80.7258C22.9281 82.8697 23.0384 85.1516 23.8362 87.2263C24.634 89.3009 26.0759 91.0555 27.9437 92.2244C29.8116 93.3933 32.0037 93.9131 34.1886 93.7051C36.3734 93.497 38.4321 92.5725 40.0531 91.0714C41.6741 89.5702 42.7692 87.5741 43.1728 85.3851C43.5764 83.196 43.2665 80.9331 42.29 78.9387L52.693 63C53.7992 63.0639 54.9081 62.9427 55.9755 62.6412L63.803 70.585C63.3752 72.1877 63.3374 73.8719 63.693 75.4927C64.0485 77.1135 64.7868 78.6223 65.8442 79.8895C66.9016 81.1566 68.2465 82.144 69.7633 82.7669C71.28 83.3897 72.9231 83.6292 74.5512 83.4649C76.1794 83.3005 77.7438 82.7372 79.1099 81.8234C80.4761 80.9096 81.603 79.6726 82.3937 78.219C83.1845 76.7653 83.6154 75.1384 83.6494 73.4783C83.6834 71.8182 83.3195 70.1745 82.589 68.6887L93.1435 52.75H93.8C95.9944 52.7401 98.126 52.0051 99.8721 50.6562C101.618 49.3074 102.884 47.4181 103.478 45.2742C104.072 43.1303 103.962 40.8484 103.164 38.7737C102.366 36.6991 100.924 34.9445 99.0563 33.7756C97.1884 32.6067 94.9963 32.0869 92.8114 32.2949C90.6266 32.503 88.5679 33.4275 86.9469 34.9286C85.3259 36.4298 84.2308 38.4259 83.8272 40.6149C83.4236 42.804 83.7335 45.0669 84.71 47.0612L74.307 63C73.2009 62.9361 72.0919 63.0573 71.0245 63.3587L63.1465 55.415C63.5743 53.8123 63.6121 52.1281 63.2565 50.5073C62.901 48.8865 62.1627 47.3776 61.1053 46.1105C60.0479 44.8434 58.703 43.856 57.1862 43.2331C55.6695 42.6103 54.0264 42.3708 52.3983 42.5351C50.7701 42.6995 49.2057 43.2628 47.8396 44.1766C46.4734 45.0904 45.3465 46.3273 44.5558 47.781C43.765 49.2347 43.3341 50.8616 43.3001 52.5217C43.2661 54.1818 43.63 55.8255 44.3605 57.3112L33.8565 73.25ZM13 32.25C13 26.6125 17.545 22 23.1 22H103.9C106.579 22 109.148 23.0799 111.042 25.0022C112.936 26.9244 114 29.5315 114 32.25V93.75C114 96.4685 112.936 99.0756 111.042 100.998C109.148 102.92 106.579 104 103.9 104H23.1C20.4213 104 17.8523 102.92 15.9582 100.998C14.0641 99.0756 13 96.4685 13 93.75V32.25Z" fill="black"/>
</svg>
