<svg width="120" height="120" viewBox="0 0 120 120" fill="none" xmlns="http://www.w3.org/2000/svg">
<path d="M119.518 44.0219C116.603 33.6378 111.066 24.178 103.44 16.5515C95.8134 8.92503 86.3536 3.38824 75.9695 0.473215C66.8608 -2.06989 59.0542 5.83092 59.0542 15.2831V52.3715C59.0542 57.0976 62.8883 60.9316 67.6143 60.9316H104.703C114.16 60.9316 122.061 53.125 119.518 44.0219Z" fill="#05411A"/>
<path opacity="0.5" d="M46.8793 17.2457L46.8782 17.2461C37.8676 20.0829 29.9966 25.7195 24.4094 33.3367C18.8222 40.9539 15.81 50.1545 15.8108 59.6012V59.6017C15.8101 65.4292 16.9574 71.1999 19.187 76.5841C21.4166 81.9683 24.685 86.8605 28.8055 90.9815C32.926 95.1025 37.8179 98.3714 43.2018 100.602C48.5857 102.832 54.3562 103.98 60.1838 103.98H60.1841C69.63 103.981 78.8302 100.97 86.4473 95.3834C94.0544 89.8046 99.6867 81.9481 102.528 72.9532C102.769 72.1103 103.174 71.3232 103.719 70.637C104.276 69.9381 104.967 69.3583 105.751 68.9321C106.536 68.5059 107.399 68.242 108.287 68.1561C109.176 68.0702 110.073 68.1641 110.925 68.4322C111.777 68.7002 112.566 69.137 113.246 69.7165C113.925 70.2959 114.481 71.0062 114.881 71.805C115.28 72.6038 115.514 73.4748 115.57 74.3661C115.625 75.2414 115.506 76.1187 115.22 76.9476C107.866 100.325 86.0153 117.291 60.1893 117.291C28.3303 117.291 2.5 91.4608 2.5 59.6069C2.5 33.7614 19.4841 11.9078 42.8846 4.5535L42.8861 4.55305C44.57 4.02495 46.3948 4.18729 47.959 5.00436C49.5179 5.81864 50.6971 7.21499 51.2275 8.9043L46.8793 17.2457ZM46.8793 17.2457C48.5614 16.7153 49.9642 15.5389 50.7795 13.9748C51.5948 12.4109 51.7559 10.5873 51.2275 8.90458L46.8793 17.2457Z" fill="#0A7B32" stroke="#0A7B32" stroke-width="5"/>
</svg>
