<svg width="24" height="22" viewBox="0 0 24 22" fill="none" xmlns="http://www.w3.org/2000/svg">
<path d="M1.1794 21.5C0.96551 21.5 0.771065 21.4467 0.596065 21.3402C0.421065 21.2336 0.284954 21.0924 0.187732 20.9167C0.09051 20.7409 0.0372323 20.5511 0.0278989 20.3473C0.0185656 20.1436 0.0718434 19.9444 0.187732 19.75L10.9794 1.08333C11.0961 0.888889 11.247 0.743056 11.4321 0.645833C11.6172 0.548611 11.8066 0.5 12.0002 0.5C12.1939 0.5 12.3837 0.548611 12.5696 0.645833C12.7555 0.743056 12.906 0.888889 13.0211 1.08333L23.8127 19.75C23.9294 19.9444 23.9831 20.1439 23.9737 20.3485C23.9644 20.5531 23.9107 20.7424 23.8127 20.9167C23.7147 21.0909 23.5786 21.2321 23.4044 21.3402C23.2302 21.4483 23.0357 21.5016 22.8211 21.5H1.1794ZM3.1919 19.1667H20.8086L12.0002 4L3.1919 19.1667ZM12.0002 18C12.3308 18 12.6081 17.888 12.8321 17.664C13.0561 17.44 13.1677 17.1631 13.1669 16.8333C13.1661 16.5036 13.0541 16.2267 12.8309 16.0027C12.6077 15.7787 12.3308 15.6667 12.0002 15.6667C11.6697 15.6667 11.3928 15.7787 11.1696 16.0027C10.9463 16.2267 10.8343 16.5036 10.8336 16.8333C10.8328 17.1631 10.9448 17.4404 11.1696 17.6652C11.3943 17.8899 11.6712 18.0016 12.0002 18ZM12.0002 14.5C12.3308 14.5 12.6081 14.388 12.8321 14.164C13.0561 13.94 13.1677 13.6631 13.1669 13.3333V9.83333C13.1669 9.50278 13.0549 9.22589 12.8309 9.00267C12.6069 8.77944 12.33 8.66744 12.0002 8.66667C11.6705 8.66589 11.3936 8.77789 11.1696 9.00267C10.9456 9.22744 10.8336 9.50433 10.8336 9.83333V13.3333C10.8336 13.6639 10.9456 13.9412 11.1696 14.1652C11.3936 14.3892 11.6705 14.5008 12.0002 14.5Z" fill="black"/>
</svg>
